<svg width="192" height="192" viewBox="0 0 192 192" fill="none" xmlns="http://www.w3.org/2000/svg">
<circle cx="96" cy="96" r="96" fill="white"/>
<path d="M91.526 39.9219C91.7019 38.9728 92.0693 38.0692 92.6058 37.2661C93.1424 36.4629 93.837 35.777 94.6474 35.2498C95.4579 34.7226 96.3672 34.3653 97.3203 34.1994C98.2734 34.0336 99.2504 34.0626 100.192 34.2849C101.133 34.5072 102.02 34.9181 102.797 35.4925C103.575 36.067 104.227 36.793 104.715 37.6267C105.202 38.4603 105.515 39.3841 105.634 40.342C105.753 41.2999 105.675 42.2718 105.406 43.1989C104.496 47.0452 83.6763 104.186 83.6763 104.186C83.6763 104.186 90.647 43.7681 91.526 39.9219Z" fill="#005596"/>
<path d="M54.5137 53.1531C54.2016 52.251 54.0739 51.2957 54.1383 50.3436C54.2026 49.3914 54.4577 48.4618 54.8884 47.6098C55.3191 46.7577 55.9166 46.0004 56.6458 45.3826C57.3749 44.7649 58.2207 44.2993 59.1333 44.0133C60.0459 43.7273 61.0068 43.6268 61.959 43.7176C62.9112 43.8084 63.8355 44.0888 64.6773 44.5422C65.519 44.9955 66.2611 45.6126 66.8596 46.357C67.4582 47.1014 67.9011 47.9579 68.1621 48.876C69.3187 52.6608 78.3713 105.601 78.3713 105.601C78.3713 105.601 55.6549 56.9071 54.5137 53.1531Z" fill="#005596"/>
<path d="M28.5745 84.6772C27.0427 83.5572 26.0197 81.8759 25.7305 80.0034C25.5873 79.0762 25.6286 78.13 25.8519 77.2187C26.0753 76.3074 26.4764 75.4489 27.0323 74.6923C27.5882 73.9356 28.2881 73.2957 29.0919 72.8088C29.8958 72.322 30.7879 71.9979 31.7173 71.8551C33.5943 71.5666 35.5093 72.0337 37.0411 73.1538C40.218 75.4923 73.1437 108.54 73.1437 108.54C73.1437 108.54 31.7668 87.0158 28.5745 84.6772Z" fill="#005596"/>
<path d="M29.8387 122.109C27.9963 122.024 26.2577 121.234 24.9842 119.903C23.7106 118.572 23 116.803 23 114.963C23 113.123 23.7106 111.354 24.9842 110.023C26.2577 108.692 27.9963 107.902 29.8387 107.816C33.7867 107.816 72.6962 115.047 72.6962 115.047C72.6962 115.047 33.7713 122.109 29.8387 122.109Z" fill="#005596"/>
<path d="M54.0967 150.356C52.7101 151.65 50.8653 152.341 48.9681 152.277C47.0708 152.214 45.2765 151.401 43.9799 150.018C42.6834 148.635 41.9907 146.794 42.0543 144.901C42.1179 143.009 42.9327 141.219 44.3192 139.925C47.2031 137.233 75.2709 120.694 75.2709 120.694C75.2709 120.694 56.9652 147.664 54.0967 150.356Z" fill="#005596"/>
<path d="M88.2255 150.156C88.2602 151.972 87.5706 153.727 86.3081 155.036C85.0457 156.344 83.314 157.099 81.4938 157.134C80.5926 157.151 79.6968 156.991 78.8576 156.663C78.0184 156.334 77.2522 155.844 76.6028 155.221C75.2912 153.961 74.5348 152.234 74.5 150.418C74.5 146.633 80.8384 122.832 80.8384 122.832C80.8384 122.832 88.1484 146.372 88.2255 150.156Z" fill="#005596"/>
<path d="M167.094 71.1537C167.961 70.7413 168.902 70.5069 169.861 70.4642C170.82 70.4216 171.779 70.5717 172.679 70.9055C173.579 71.2393 174.403 71.7501 175.101 72.4076C175.8 73.065 176.359 73.8558 176.745 74.7329C177.132 75.6099 177.337 76.5555 177.351 77.5135C177.364 78.4715 177.184 79.4223 176.822 80.3096C176.459 81.1969 175.922 82.0026 175.242 82.6789C174.562 83.3551 173.752 83.8882 172.861 84.2464C169.206 85.7849 91.7886 112.201 91.7886 112.201C91.7886 112.201 163.439 72.7845 167.094 71.1537Z" fill="#005596"/>
<path d="M131.299 47.276C132.537 45.7732 134.322 44.8222 136.262 44.6318C138.203 44.4414 140.139 45.0272 141.647 46.2606C143.082 47.5765 143.937 49.4048 144.027 51.3471C144.116 53.2895 143.433 55.1884 142.125 56.6302C139.334 59.7841 88.75 107.493 88.75 107.493C88.75 107.493 128.538 50.4299 131.299 47.276Z" fill="#005596"/>
</svg>
