<svg width="155" height="124" viewBox="0 0 155 124" fill="none" xmlns="http://www.w3.org/2000/svg">
<path d="M68.526 5.92186C68.7019 4.97276 69.0693 4.06922 69.6058 3.26608C70.1424 2.46295 70.837 1.77698 71.6474 1.24981C72.4579 0.722643 73.3672 0.365281 74.3203 0.199416C75.2734 0.0335511 76.2504 0.0626445 77.1918 0.28493C78.1333 0.507215 79.0197 0.918055 79.7972 1.49251C80.5746 2.06696 81.2269 2.79305 81.7145 3.62668C82.2021 4.46032 82.5149 5.38411 82.6337 6.34199C82.7525 7.29986 82.6749 8.27183 82.4057 9.19889C81.4958 13.0452 60.6763 70.1855 60.6763 70.1855C60.6763 70.1855 67.647 9.76814 68.526 5.92186Z" fill="#005596"/>
<path d="M31.5137 19.1531C31.2016 18.251 31.0739 17.2957 31.1383 16.3436C31.2026 15.3914 31.4577 14.4618 31.8884 13.6098C32.3191 12.7577 32.9166 12.0004 33.6458 11.3826C34.3749 10.7649 35.2207 10.2993 36.1333 10.0133C37.0459 9.7273 38.0068 9.62676 38.959 9.7176C39.9112 9.80844 40.8355 10.0888 41.6773 10.5422C42.519 10.9955 43.2611 11.6126 43.8596 12.357C44.4582 13.1014 44.9011 13.9579 45.1621 14.876C46.3187 18.6608 55.3713 71.601 55.3713 71.601C55.3713 71.601 32.6549 22.9071 31.5137 19.1531Z" fill="#005596"/>
<path d="M5.57447 50.6772C4.04271 49.5572 3.01971 47.8759 2.73049 46.0034C2.58728 45.0762 2.62855 44.13 2.85191 43.2187C3.07528 42.3074 3.47635 41.4489 4.03228 40.6923C4.5882 39.9356 5.28808 39.2957 6.09193 38.8088C6.89579 38.322 7.7879 37.9979 8.7173 37.8551C10.5943 37.5666 12.5093 38.0337 14.0411 39.1538C17.218 41.4923 50.1437 74.5396 50.1437 74.5396C50.1437 74.5396 8.7668 53.0158 5.57447 50.6772Z" fill="#005596"/>
<path d="M6.83871 88.1093C4.99634 88.024 3.25773 87.2338 1.98417 85.9029C0.710599 84.572 0 82.8028 0 80.9629C0 79.1229 0.710599 77.3537 1.98417 76.0228C3.25773 74.6919 4.99634 73.9018 6.83871 73.8165C10.7867 73.8165 49.6962 81.0475 49.6962 81.0475C49.6962 81.0475 10.7713 88.1093 6.83871 88.1093Z" fill="#005596"/>
<path d="M31.0967 116.356C29.7101 117.65 27.8653 118.341 25.9681 118.277C24.0708 118.214 22.2765 117.401 20.9799 116.018C19.6834 114.635 18.9907 112.794 19.0543 110.901C19.1179 109.009 19.9327 107.219 21.3192 105.925C24.2031 103.233 52.2709 86.6938 52.2709 86.6938C52.2709 86.6938 33.9652 113.664 31.0967 116.356Z" fill="#005596"/>
<path d="M65.2255 116.156C65.2602 117.972 64.5706 119.727 63.3081 121.036C62.0457 122.344 60.314 123.099 58.4938 123.134C57.5926 123.151 56.6968 122.991 55.8576 122.663C55.0184 122.334 54.2522 121.844 53.6028 121.221C52.2912 119.961 51.5348 118.234 51.5 116.418C51.5 112.633 57.8384 88.8325 57.8384 88.8325C57.8384 88.8325 65.1484 112.372 65.2255 116.156Z" fill="#005596"/>
<path d="M144.094 37.1537C144.961 36.7413 145.902 36.5069 146.861 36.4642C147.82 36.4216 148.779 36.5717 149.679 36.9055C150.579 37.2393 151.403 37.7501 152.101 38.4076C152.8 39.065 153.359 39.8558 153.745 40.7329C154.132 41.6099 154.337 42.5555 154.351 43.5135C154.364 44.4715 154.184 45.4223 153.822 46.3096C153.459 47.1969 152.922 48.0026 152.242 48.6789C151.562 49.3551 150.752 49.8882 149.861 50.2464C146.206 51.7849 68.7886 78.2012 68.7886 78.2012C68.7886 78.2012 140.439 38.7845 144.094 37.1537Z" fill="#005596"/>
<path d="M108.299 13.276C109.537 11.7732 111.322 10.8222 113.262 10.6318C115.203 10.4414 117.139 11.0272 118.647 12.2606C120.082 13.5765 120.937 15.4048 121.027 17.3471C121.116 19.2895 120.433 21.1884 119.125 22.6302C116.334 25.7841 65.75 73.4934 65.75 73.4934C65.75 73.4934 105.538 16.4299 108.299 13.276Z" fill="#005596"/>
</svg>
