<svg width="300" height="96" viewBox="0 0 300 96" fill="none" xmlns="http://www.w3.org/2000/svg">
<g clip-path="url(#clip0_243_2933)">
<path d="M251.758 3.1019C251.857 2.5674 252.064 2.05857 252.366 1.60628C252.668 1.15398 253.059 0.767674 253.515 0.470796C253.971 0.173918 254.483 -0.0273335 255.02 -0.120741C255.556 -0.21415 256.106 -0.197765 256.636 -0.0725836C257.166 0.0525982 257.665 0.283966 258.103 0.607474C258.541 0.930983 258.908 1.33988 259.182 1.80935C259.457 2.27882 259.633 2.79906 259.7 3.3385C259.767 3.87793 259.723 4.4253 259.571 4.94738C259.059 7.11345 247.339 39.2925 247.339 39.2925C247.339 39.2925 251.263 5.26796 251.758 3.1019Z" fill="#005596"/>
<path d="M230.923 10.5531C230.747 10.0451 230.675 9.50705 230.711 8.97085C230.748 8.43465 230.891 7.91115 231.134 7.43128C231.376 6.95142 231.712 6.52494 232.123 6.17706C232.533 5.82918 233.009 5.56697 233.523 5.40591C234.037 5.24485 234.578 5.18823 235.114 5.23939C235.65 5.29054 236.17 5.44844 236.644 5.70375C237.118 5.95905 237.535 6.30658 237.872 6.72579C238.209 7.145 238.459 7.62737 238.606 8.14439C239.257 10.2758 244.353 40.0895 244.353 40.0895C244.353 40.0895 231.565 12.6671 230.923 10.5531Z" fill="#005596"/>
<path d="M216.321 28.3061C215.459 27.6753 214.883 26.7285 214.72 25.674C214.639 25.1518 214.662 24.619 214.788 24.1058C214.914 23.5926 215.14 23.1091 215.453 22.683C215.766 22.2569 216.16 21.8965 216.612 21.6223C217.065 21.3482 217.567 21.1657 218.09 21.0852C219.147 20.9227 220.225 21.1858 221.087 21.8166C222.875 23.1335 241.41 41.7444 241.41 41.7444C241.41 41.7444 218.118 29.6231 216.321 28.3061Z" fill="#005596"/>
<path d="M217.033 49.3863C215.996 49.3382 215.017 48.8932 214.3 48.1437C213.583 47.3942 213.183 46.3979 213.183 45.3617C213.183 44.3255 213.583 43.3292 214.3 42.5797C215.017 41.8302 215.996 41.3852 217.033 41.3372C219.255 41.3372 241.158 45.4094 241.158 45.4094C241.158 45.4094 219.246 49.3863 217.033 49.3863Z" fill="#005596"/>
<path d="M230.688 65.2939C229.908 66.0223 228.869 66.4114 227.801 66.3757C226.733 66.34 225.723 65.8822 224.993 65.1032C224.264 64.3243 223.874 63.2878 223.909 62.2219C223.945 61.156 224.404 60.1479 225.184 59.4195C226.808 57.9033 242.608 48.5892 242.608 48.5892C242.608 48.5892 232.303 63.7776 230.688 65.2939Z" fill="#005596"/>
<path d="M249.9 65.1812C249.92 66.2038 249.532 67.1923 248.821 67.9291C248.11 68.666 247.135 69.091 246.111 69.1105C245.603 69.1202 245.099 69.03 244.627 68.8452C244.154 68.6604 243.723 68.3845 243.358 68.0333C242.619 67.324 242.193 66.3511 242.174 65.3285C242.174 63.1971 245.742 49.7935 245.742 49.7935C245.742 49.7935 249.857 63.0498 249.9 65.1812Z" fill="#005596"/>
<path d="M294.297 20.6903C294.785 20.4581 295.314 20.326 295.854 20.302C296.394 20.278 296.934 20.3625 297.441 20.5505C297.947 20.7385 298.411 21.0262 298.804 21.3964C299.197 21.7667 299.512 22.212 299.73 22.7059C299.947 23.1999 300.063 23.7324 300.07 24.2719C300.078 24.8114 299.977 25.3468 299.773 25.8465C299.569 26.3462 299.266 26.7999 298.883 27.1808C298.5 27.5616 298.045 27.8618 297.543 28.0636C295.486 28.93 251.906 43.8065 251.906 43.8065C251.906 43.8065 292.239 21.6087 294.297 20.6903Z" fill="#005596"/>
<path d="M274.147 7.24329C274.844 6.397 275.849 5.8614 276.941 5.75417C278.033 5.64695 279.124 5.97687 279.972 6.67145C280.78 7.41254 281.261 8.44216 281.312 9.53599C281.362 10.6298 280.977 11.6992 280.241 12.5112C278.67 14.2873 250.195 41.1552 250.195 41.1552C250.195 41.1552 272.593 9.01947 274.147 7.24329Z" fill="#005596"/>
<path d="M83.3927 83.9827V95.8007H81.8647V83.9827H83.3927Z" fill="#54534A"/>
<path d="M88.1411 84.9097V87.3444H90.3462V88.5227H88.1411V93.0975C88.1411 94.1545 88.4363 94.7523 89.2958 94.7523C89.5884 94.7549 89.8802 94.7199 90.1639 94.6484L90.2333 95.8007C89.7974 95.9603 89.3345 96.0339 88.8704 96.0173C88.562 96.0352 88.2535 95.9864 87.9658 95.8742C87.6781 95.7621 87.4181 95.5892 87.2036 95.3675C86.7322 94.7326 86.5182 93.9436 86.6046 93.1581V88.5227H85.311V87.3444H86.6306V85.2736L88.1411 84.9097Z" fill="#54534A"/>
<path d="M94.4005 83.7834C94.0021 85.2248 93.449 86.6192 92.751 87.9422L91.77 88.0635C92.2303 86.7233 92.5759 85.3465 92.8031 83.948L94.4005 83.7834Z" fill="#54534A"/>
<path d="M94.6261 94.2238C95.2351 94.6084 95.9371 94.821 96.6575 94.839C97.7861 94.839 98.307 94.2758 98.307 93.574C98.307 92.8722 97.8729 92.439 96.727 92.0144C95.2078 91.4686 94.4872 90.6282 94.4872 89.6144C94.4872 88.2455 95.5897 87.1191 97.4128 87.1191C98.1444 87.1105 98.8656 87.2927 99.505 87.6476L99.1144 88.7653C98.5916 88.4467 97.9906 88.2787 97.3781 88.2801C96.4666 88.2801 95.963 88.8 95.963 89.4325C95.963 90.065 96.4666 90.4549 97.5691 90.8707C99.0449 91.4339 99.8002 92.1704 99.8002 93.47C99.8002 94.9603 98.6456 96.0173 96.6228 96.0173C95.7932 96.0307 94.974 95.8308 94.2441 95.4368L94.6261 94.2238Z" fill="#54534A"/>
<path d="M106.094 87.3098L107.214 91.6419C107.457 92.595 107.691 93.47 107.848 94.3451H107.9C108.091 93.4787 108.369 92.6123 108.655 91.6592L110.035 87.3271H111.338L112.648 91.5726C112.97 92.595 113.213 93.4874 113.404 94.3451H113.456C113.623 93.4158 113.841 92.496 114.107 91.5899L115.314 87.3271H116.842L114.107 95.8181H112.701L111.407 91.7718C111.112 90.8188 110.86 89.9783 110.652 88.982C110.447 89.9314 110.189 90.8686 109.879 91.7892L108.516 95.8007H107.11L104.505 87.3098H106.094Z" fill="#54534A"/>
<path d="M118.387 83.3502H119.924V88.644C120.189 88.1891 120.573 87.8148 121.035 87.561C121.51 87.2762 122.052 87.1236 122.606 87.1191C123.752 87.1191 125.575 87.8209 125.575 90.7494V95.8007H124.03V90.9227C124.03 89.5624 123.527 88.4014 122.068 88.4014C121.605 88.4107 121.157 88.5644 120.787 88.8411C120.416 89.1177 120.142 89.5033 120.002 89.9437C119.911 90.1781 119.873 90.4294 119.889 90.6801V95.8007H118.353L118.387 83.3502Z" fill="#54534A"/>
<path d="M132.824 95.8007L132.703 94.735H132.65C132.348 95.1373 131.954 95.4619 131.502 95.6819C131.049 95.9019 130.55 96.0109 130.046 96C129.711 96.0253 129.374 95.9806 129.057 95.8689C128.74 95.7571 128.45 95.5807 128.205 95.3509C127.96 95.121 127.765 94.8428 127.634 94.5339C127.503 94.225 127.437 93.8922 127.442 93.5567C127.442 91.5033 129.265 90.3856 132.546 90.4029V90.2209C132.583 89.9575 132.558 89.6891 132.475 89.4367C132.391 89.1842 132.25 88.9544 132.062 88.7651C131.875 88.5757 131.647 88.432 131.395 88.3449C131.143 88.2578 130.875 88.2297 130.61 88.2628C129.83 88.2626 129.066 88.4818 128.405 88.8953L128.049 87.8729C128.893 87.3686 129.861 87.1077 130.845 87.1191C133.449 87.1191 134.065 88.852 134.065 90.5848V93.7646C134.054 94.4431 134.1 95.1214 134.204 95.7921L132.824 95.8007ZM132.598 91.4686C130.914 91.4686 128.996 91.7372 128.996 93.3834C128.98 93.5792 129.007 93.7761 129.075 93.9606C129.142 94.1451 129.249 94.3129 129.387 94.4526C129.526 94.5924 129.693 94.7007 129.877 94.7704C130.061 94.84 130.258 94.8694 130.454 94.8563C130.903 94.8677 131.343 94.7361 131.711 94.4805C132.08 94.225 132.357 93.8589 132.503 93.4354C132.565 93.2779 132.597 93.1106 132.598 92.9415V91.4686Z" fill="#54534A"/>
<path d="M138.354 84.9097V87.3444H140.568V88.5227H138.354V93.0975C138.354 94.1545 138.649 94.7523 139.508 94.7523C139.801 94.7549 140.093 94.7199 140.377 94.6484L140.446 95.8007C140.01 95.9612 139.547 96.0348 139.083 96.0173C138.775 96.0352 138.466 95.9864 138.178 95.8742C137.891 95.7621 137.631 95.5892 137.416 95.3675C136.945 94.7326 136.731 93.9436 136.817 93.1581V88.5227H135.506V87.3444H136.817V85.2736L138.354 84.9097Z" fill="#54534A"/>
<path d="M146.628 87.3098L147.747 91.6419C147.999 92.595 148.225 93.47 148.381 94.3451H148.451C148.642 93.4787 148.928 92.6123 149.206 91.6592L150.595 87.3271H151.888L153.208 91.5726C153.52 92.595 153.764 93.4874 153.963 94.3451H154.015C154.18 93.4159 154.394 92.4961 154.658 91.5899L155.873 87.3271H157.401L154.658 95.8181H153.26L151.923 91.7545C151.628 90.8015 151.385 89.961 151.168 88.9646C150.967 89.915 150.709 90.8525 150.395 91.7718L149.032 95.8007H147.582L145.021 87.3098H146.628Z" fill="#54534A"/>
<path d="M159.606 91.8412C159.571 92.2331 159.621 92.6279 159.755 92.9983C159.888 93.3686 160.1 93.7057 160.377 93.9859C160.653 94.2662 160.988 94.4831 161.357 94.6214C161.726 94.7597 162.121 94.8162 162.514 94.787C163.321 94.8138 164.124 94.6629 164.867 94.3451L165.127 95.4542C164.234 95.8245 163.273 96.0045 162.306 95.9827C159.701 95.9827 158.13 94.2498 158.13 91.7025C158.13 89.1552 159.64 87.1191 162.115 87.1191C164.884 87.1191 165.587 89.5625 165.587 91.122C165.584 91.3626 165.567 91.6027 165.535 91.8412H159.606ZM164.129 90.7321C164.129 89.7531 163.721 88.2282 161.984 88.2282C160.43 88.2282 159.745 89.6664 159.623 90.7321H164.129Z" fill="#54534A"/>
<path d="M178.575 83.3502V93.574C178.575 94.3278 178.575 95.1942 178.644 95.766H177.264L177.186 94.2931C176.913 94.817 176.496 95.2524 175.984 95.5485C175.472 95.8447 174.886 95.9892 174.295 95.9653C172.246 95.9653 170.666 94.2325 170.666 91.6332C170.666 88.8173 172.402 87.0758 174.468 87.0758C174.973 87.0446 175.476 87.1486 175.926 87.3772C176.377 87.6057 176.758 87.9504 177.029 88.3754V88.3754V83.3502H178.575ZM177.029 90.7668C177.032 90.5482 177.008 90.3301 176.96 90.117C176.851 89.6103 176.57 89.1566 176.166 88.8317C175.761 88.5068 175.257 88.3304 174.738 88.3321C173.14 88.3321 172.194 89.7357 172.194 91.6072C172.194 93.3401 173.062 94.7523 174.703 94.7523C175.234 94.7494 175.748 94.5645 176.159 94.2285C176.57 93.8926 176.853 93.426 176.96 92.9068C177.011 92.6882 177.034 92.4641 177.029 92.2397V90.7668Z" fill="#54534A"/>
<path d="M188.818 91.4859C188.818 94.631 186.639 96 184.591 96C182.29 96 180.519 94.2671 180.519 91.6678C180.519 88.826 182.377 87.1624 184.729 87.1624C187.082 87.1624 188.818 88.8953 188.818 91.4859ZM182.082 91.5725C182.082 93.4353 183.149 94.8389 184.686 94.8389C186.223 94.8389 187.29 93.4527 187.29 91.5379C187.29 90.0996 186.57 88.2801 184.747 88.2801C182.924 88.2801 182.082 89.961 182.082 91.5725Z" fill="#54534A"/>
<path d="M189.973 94.8905C189.963 94.748 189.984 94.605 190.032 94.4707C190.081 94.3363 190.157 94.2136 190.256 94.1101C190.355 94.0067 190.474 93.9249 190.606 93.8699C190.738 93.8149 190.88 93.7879 191.023 93.7906C191.166 93.7877 191.307 93.8147 191.439 93.8698C191.57 93.925 191.688 94.0071 191.786 94.1109C191.883 94.2146 191.958 94.3376 192.004 94.4719C192.051 94.6063 192.069 94.7489 192.057 94.8905C192.057 95.1662 191.947 95.4305 191.751 95.6254C191.556 95.8203 191.291 95.9298 191.015 95.9298C190.739 95.9298 190.474 95.8203 190.278 95.6254C190.083 95.4305 189.973 95.1662 189.973 94.8905Z" fill="#54534A"/>
<path d="M6.13769 77.5798H2.10956L2.1356 56.5776L0 55.7805L0.00868131 53.1899L6.17241 53.1985L6.13769 77.5798Z" fill="#4597D3"/>
<path d="M48.8408 77.6404H44.7172V62.9112C44.7172 60.5198 44.3266 58.787 43.5366 57.7126C42.7466 56.6382 41.3662 56.0924 39.4043 56.0837C37.8817 56.0465 36.3966 56.557 35.2199 57.522C34.2511 58.2881 33.5394 59.3309 33.1798 60.5112V77.5884H29.0388V62.8592C29.0388 60.4678 28.6481 58.735 27.8494 57.6606C27.0508 56.5863 25.6791 56.0404 23.7258 56.0404C22.2024 55.9977 20.7154 56.5088 19.5414 57.4787C18.5671 58.2378 17.8516 59.2787 17.4926 60.4592V77.5364H13.5166V53.1465H15.5133L16.7981 55.6765C17.6664 54.6995 18.7374 53.9228 19.9367 53.4007C21.1361 52.8785 22.435 52.6232 23.7432 52.6527C25.3825 52.6554 27.001 53.0193 28.4832 53.7184C29.818 54.3079 30.9672 55.2482 31.8081 56.439C32.6926 55.2609 33.8449 54.3095 35.1702 53.6633C36.4954 53.017 37.9556 52.6944 39.4303 52.722C45.7329 52.722 48.8785 55.8989 48.8669 62.2527L48.8408 77.6404Z" fill="#4597D3"/>
<path d="M78.3663 65.2939C78.3663 69.0542 77.4664 72.0607 75.6664 74.3134C73.6813 76.8376 70.7615 78.0968 66.907 78.091C64.3844 78.0456 61.9224 77.3115 59.7883 75.9683V87.5957H55.7949L55.847 53.2679H58.2865L59.2761 55.8672C60.0319 55.0126 60.9651 54.3326 62.0107 53.8744C63.5018 53.1546 65.1379 52.7842 66.7941 52.7914C70.504 52.7914 73.363 53.8571 75.3713 55.9885C77.3796 58.1199 78.3779 61.2217 78.3663 65.2939ZM74.234 65.2939C74.234 59.1942 71.7193 56.1387 66.69 56.1271C65.0523 56.1314 63.4609 56.67 62.1583 57.6607C61.13 58.33 60.3163 59.2804 59.8144 60.3986V71.6621C62.1873 73.7415 64.5312 74.7813 66.8462 74.7813C71.7656 74.787 74.2282 71.6188 74.234 65.2766V65.2939Z" fill="#4597D3"/>
<path d="M98.9059 53.6664L97.8468 57.0455C96.7544 56.557 95.5713 56.3032 94.3743 56.3003C92.9116 56.2853 91.4887 56.775 90.3462 57.6866C89.3912 58.3777 88.6776 59.3505 88.3061 60.4679V77.7011H84.2866V53.3112H86.3788L87.1254 55.9105C87.8972 55.0401 88.8476 54.3457 89.9121 53.8744C91.2815 53.1684 92.7983 52.7944 94.3396 52.7827C95.9031 52.7952 97.451 53.0947 98.9059 53.6664V53.6664Z" fill="#4597D3"/>
<path d="M123.535 65.4585C123.535 69.4441 122.635 72.5314 120.835 74.7206C118.908 77.0715 116.037 78.2469 112.223 78.2469C108.409 78.2469 105.559 77.0455 103.672 74.6426C101.936 72.4477 101.068 69.3747 101.068 65.4238C101.068 61.6751 101.916 58.7206 103.611 56.5603C105.539 54.0708 108.433 52.8289 112.293 52.8347C116.008 52.8347 118.859 54.0679 120.844 56.5343C122.644 58.7581 123.541 61.7329 123.535 65.4585ZM119.403 65.4585C119.403 59.2549 117.018 56.1473 112.249 56.1358C107.48 56.1242 105.105 59.226 105.122 65.4412C105.122 68.6296 105.652 70.9719 106.711 72.4679C107.831 74.1314 109.68 74.9632 112.223 74.9632C114.767 74.9632 116.72 74.0968 117.849 72.4766C118.885 70.9459 119.403 68.6007 119.403 65.4412V65.4585Z" fill="#4597D3"/>
<path d="M149.492 53.3978L141.045 77.7704H135.324L127.051 53.3718H131.331L138.276 74.5819L145.316 53.3892L149.492 53.3978Z" fill="#4597D3"/>
<path d="M159.927 77.7964L155.899 77.7877L155.925 56.7942L153.79 55.9884L153.798 53.4065H159.962L159.927 77.7964Z" fill="#4597D3"/>
<path d="M188.002 77.8397H183.87V63.1104C183.87 58.5704 181.983 56.2974 178.21 56.2917C176.565 56.2747 174.958 56.7849 173.626 57.7473C172.555 58.479 171.736 59.5229 171.282 60.7364V77.8137H167.297V53.4325H169.789L170.657 56.1097C171.477 55.187 172.491 54.4562 173.626 53.9696C175.054 53.2872 176.617 52.9319 178.201 52.9299C184.741 52.9299 188.005 56.1068 187.994 62.4606L188.002 77.8397Z" fill="#4597D3"/>
<path d="M216.781 53.4932V77.2332C216.781 80.595 215.792 83.252 213.812 85.2043C211.833 87.1567 209.055 88.13 205.478 88.1242C202.557 88.0996 199.733 87.0784 197.474 85.2303L199.67 82.1372C201.275 83.5459 203.309 84.3731 205.443 84.4852C210.317 84.4852 212.756 81.9986 212.762 77.0253V75.0325C210.773 76.7005 208.249 77.5986 205.652 77.5625C204.142 77.605 202.642 77.3113 201.261 76.7028C199.879 76.0944 198.651 75.1863 197.665 74.0448C195.553 71.5699 194.447 68.3951 194.566 65.1466C194.566 61.369 195.55 58.3913 197.517 56.2137C199.485 54.0361 202.338 52.9531 206.077 52.9646C208.626 52.9472 211.115 53.7358 213.187 55.2173L214.055 53.4845L216.781 53.4932ZM212.692 71.0469V59.5408C211.935 58.8282 211.082 58.2246 210.157 57.7473C208.827 57.0061 207.339 56.5932 205.817 56.543C200.938 56.543 198.495 59.4311 198.49 65.2072C198.377 67.4166 198.987 69.6027 200.226 71.4368C200.855 72.2942 201.689 72.9811 202.652 73.435C203.614 73.889 204.675 74.0956 205.739 74.0361C207.038 74.0206 208.321 73.7484 209.515 73.2354C210.708 72.7224 211.788 71.9786 212.692 71.0469V71.0469Z" fill="#4597D3"/>
</g>
<defs>
<clipPath id="clip0_243_2933">
<rect width="300" height="96" fill="white"/>
</clipPath>
</defs>
</svg>
