<svg width="297" height="95" viewBox="0 0 297 95" fill="none" xmlns="http://www.w3.org/2000/svg">
<g clip-path="url(#clip0_38_24445)">
<path d="M249.24 3.06941C249.338 2.54049 249.543 2.03695 249.842 1.58937C250.141 1.14179 250.528 0.759507 250.98 0.465721C251.432 0.171936 251.938 -0.0272191 252.469 -0.119654C253.001 -0.212089 253.545 -0.195876 254.07 -0.0719979C254.594 0.0518799 255.088 0.280838 255.522 0.600976C255.955 0.921114 256.318 1.32575 256.59 1.79033C256.862 2.25491 257.036 2.76973 257.102 3.30355C257.169 3.83736 257.125 4.37903 256.975 4.89568C256.468 7.03918 244.866 38.883 244.866 38.883C244.866 38.883 248.75 5.21292 249.24 3.06941Z" fill="#005596"/>
<path d="M228.614 10.4431C228.44 9.94042 228.369 9.40802 228.405 8.87741C228.44 8.3468 228.583 7.82874 228.823 7.35388C229.063 6.87902 229.396 6.45698 229.802 6.11272C230.208 5.76847 230.68 5.50898 231.188 5.3496C231.697 5.19022 232.232 5.13419 232.763 5.18481C233.294 5.23544 233.809 5.39169 234.278 5.64434C234.747 5.89698 235.16 6.24089 235.494 6.65573C235.828 7.07057 236.074 7.54792 236.22 8.05956C236.864 10.1688 241.909 39.6719 241.909 39.6719C241.909 39.6719 229.25 12.5352 228.614 10.4431Z" fill="#005596"/>
<path d="M214.158 28.0112C213.304 27.387 212.734 26.4501 212.573 25.4065C212.493 24.8898 212.516 24.3625 212.641 23.8546C212.765 23.3468 212.989 22.8684 213.298 22.4467C213.608 22.025 213.998 21.6684 214.446 21.3971C214.894 21.1258 215.391 20.9452 215.909 20.8655C216.955 20.7047 218.023 20.9651 218.876 21.5893C220.647 22.8925 238.996 41.3095 238.996 41.3095C238.996 41.3095 215.937 29.3145 214.158 28.0112Z" fill="#005596"/>
<path d="M214.862 48.8717C213.836 48.8242 212.867 48.3838 212.157 47.6422C211.447 46.9005 211.051 45.9145 211.051 44.8891C211.051 43.8637 211.447 42.8778 212.157 42.1361C212.867 41.3944 213.836 40.954 214.862 40.9065C217.063 40.9065 238.747 44.9363 238.747 44.9363C238.747 44.9363 217.054 48.8717 214.862 48.8717Z" fill="#005596"/>
<path d="M228.381 64.6137C227.609 65.3345 226.581 65.7196 225.523 65.6843C224.466 65.6489 223.466 65.1959 222.743 64.4251C222.021 63.6542 221.635 62.6285 221.67 61.5737C221.706 60.5189 222.16 59.5214 222.932 58.8005C224.54 57.3001 240.182 48.083 240.182 48.083C240.182 48.083 229.98 63.1132 228.381 64.6137Z" fill="#005596"/>
<path d="M247.401 64.5023C247.42 65.5143 247.036 66.4924 246.333 67.2216C245.629 67.9508 244.664 68.3713 243.65 68.3907C243.147 68.4002 242.648 68.311 242.18 68.1281C241.713 67.9452 241.286 67.6722 240.924 67.3247C240.193 66.6228 239.771 65.66 239.752 64.6481C239.752 62.5389 243.284 49.2749 243.284 49.2749C243.284 49.2749 247.358 62.3931 247.401 64.5023Z" fill="#005596"/>
<path d="M291.354 20.4748C291.837 20.245 292.361 20.1144 292.896 20.0906C293.43 20.0669 293.964 20.1505 294.466 20.3365C294.968 20.5225 295.427 20.8072 295.816 21.1736C296.205 21.54 296.517 21.9807 296.732 22.4695C296.948 22.9583 297.062 23.4852 297.07 24.0191C297.077 24.553 296.977 25.0829 296.775 25.5774C296.573 26.0719 296.274 26.5209 295.895 26.8977C295.515 27.2746 295.064 27.5717 294.568 27.7713C292.531 28.6287 249.387 43.3503 249.387 43.3503C249.387 43.3503 289.317 21.3837 291.354 20.4748Z" fill="#005596"/>
<path d="M271.406 7.16782C272.095 6.33034 273.09 5.80032 274.172 5.69421C275.253 5.58811 276.332 5.91459 277.172 6.60194C277.972 7.3353 278.449 8.3542 278.499 9.43664C278.549 10.5191 278.168 11.5773 277.439 12.3808C275.883 14.1385 247.693 40.7265 247.693 40.7265C247.693 40.7265 269.867 8.92549 271.406 7.16782Z" fill="#005596"/>
<path d="M82.5585 83.1079V94.8029H81.0459V83.1079H82.5585Z" fill="#54534A"/>
<path d="M87.2598 84.0254V86.4347H89.4428V87.6007H87.2598V92.1278C87.2598 93.1739 87.552 93.7655 88.4029 93.7655C88.6926 93.768 88.9814 93.7334 89.2623 93.6626L89.3311 94.8029C88.8995 94.9609 88.4412 95.0337 87.9818 95.0173C87.6765 95.035 87.371 94.9867 87.0862 94.8757C86.8014 94.7647 86.544 94.5936 86.3316 94.3742C85.8649 93.746 85.6531 92.9651 85.7386 92.1878V87.6007H84.458V86.4347H85.7644V84.3855L87.2598 84.0254Z" fill="#54534A"/>
<path d="M93.4567 82.9106C93.0623 84.3371 92.5148 85.7169 91.8237 87.0262L90.8525 87.1462C91.3083 85.8199 91.6504 84.4575 91.8753 83.0736L93.4567 82.9106Z" fill="#54534A"/>
<path d="M93.6799 93.2424C94.2828 93.623 94.9778 93.8334 95.691 93.8512C96.8083 93.8512 97.324 93.2938 97.324 92.5993C97.324 91.9049 96.8943 91.4762 95.7598 91.056C94.2557 90.5159 93.5424 89.6842 93.5424 88.681C93.5424 87.3263 94.6339 86.2117 96.4388 86.2117C97.163 86.2032 97.877 86.3835 98.51 86.7347L98.1233 87.8408C97.6058 87.5254 97.0108 87.3592 96.4044 87.3606C95.5019 87.3606 95.0035 87.8751 95.0035 88.501C95.0035 89.1269 95.502 89.5127 96.5935 89.9243C98.0545 90.4816 98.8022 91.2104 98.8022 92.4965C98.8022 93.9712 97.6592 95.0172 95.6567 95.0172C94.8353 95.0305 94.0243 94.8326 93.3018 94.4428L93.6799 93.2424Z" fill="#54534A"/>
<path d="M105.033 86.4001L106.142 90.6872C106.383 91.6303 106.615 92.4963 106.769 93.3622H106.821C107.01 92.5048 107.285 91.6474 107.569 90.7043L108.935 86.4173H110.224L111.522 90.6186C111.84 91.6303 112.081 92.5134 112.27 93.3622H112.321C112.487 92.4425 112.702 91.5324 112.966 90.6357L114.161 86.4173H115.673L112.966 94.8198H111.574L110.293 90.8158C110.001 89.8726 109.752 89.0409 109.545 88.0549C109.343 88.9945 109.087 89.9219 108.78 90.8329L107.431 94.8027H106.039L103.46 86.4001H105.033Z" fill="#54534A"/>
<path d="M117.203 82.4819H118.725V87.7207C118.987 87.2705 119.367 86.9001 119.825 86.6489C120.295 86.3671 120.832 86.2161 121.38 86.2116C122.515 86.2116 124.32 86.9061 124.32 89.8041V94.8028H122.79V89.9756C122.79 88.6295 122.291 87.4806 120.847 87.4806C120.389 87.4897 119.946 87.6419 119.579 87.9157C119.212 88.1894 118.94 88.571 118.802 89.0068C118.712 89.2387 118.674 89.4874 118.69 89.7355V94.8028H117.169L117.203 82.4819Z" fill="#54534A"/>
<path d="M131.496 94.8027L131.375 93.7481H131.324C131.025 94.1462 130.635 94.4674 130.186 94.6851C129.738 94.9028 129.244 95.0107 128.746 94.9999C128.414 95.0249 128.08 94.9807 127.766 94.8701C127.452 94.7595 127.165 94.585 126.923 94.3575C126.68 94.1301 126.488 93.8548 126.358 93.5491C126.228 93.2434 126.163 92.9141 126.167 92.582C126.167 90.55 127.972 89.4439 131.221 89.4611V89.281C131.257 89.0203 131.233 88.7548 131.15 88.5049C131.067 88.2551 130.927 88.0277 130.742 87.8403C130.556 87.653 130.33 87.5107 130.081 87.4245C129.832 87.3383 129.566 87.3105 129.304 87.3433C128.532 87.3431 127.775 87.56 127.121 87.9692L126.769 86.9575C127.604 86.4584 128.562 86.2002 129.536 86.2115C132.115 86.2115 132.725 87.9263 132.725 89.6411V92.7878C132.713 93.4593 132.759 94.1304 132.862 94.7941L131.496 94.8027ZM131.272 90.5157C129.605 90.5157 127.706 90.7815 127.706 92.4105C127.69 92.6043 127.717 92.7992 127.784 92.9817C127.851 93.1643 127.957 93.3304 128.094 93.4686C128.231 93.6069 128.396 93.7142 128.578 93.7831C128.76 93.852 128.955 93.881 129.15 93.8681C129.594 93.8794 130.03 93.7491 130.394 93.4962C130.759 93.2434 131.034 92.8811 131.178 92.462C131.239 92.3062 131.271 92.1406 131.272 91.9733V90.5157Z" fill="#54534A"/>
<path d="M136.97 84.0254V86.4347H139.162V87.6007H136.97V92.1278C136.97 93.1739 137.263 93.7655 138.113 93.7655C138.403 93.768 138.692 93.7334 138.973 93.6626L139.042 94.8029C138.61 94.9617 138.152 95.0345 137.692 95.0173C137.387 95.035 137.082 94.9867 136.797 94.8757C136.512 94.7647 136.255 94.5936 136.042 94.3742C135.575 93.746 135.364 92.9651 135.449 92.1878V87.6007H134.151V86.4347H135.449V84.3855L136.97 84.0254Z" fill="#54534A"/>
<path d="M145.161 86.4001L146.27 90.6872C146.519 91.6303 146.743 92.4963 146.897 93.3622H146.966C147.155 92.5048 147.439 91.6474 147.714 90.7043L149.089 86.4173H150.37L151.676 90.6186C151.985 91.6303 152.226 92.5134 152.424 93.3622H152.475C152.638 92.4426 152.85 91.5325 153.111 90.6357L154.314 86.4173H155.827L153.111 94.8198H151.727L150.404 90.7986C150.112 89.8555 149.871 89.0238 149.656 88.0378C149.457 88.9783 149.202 89.906 148.891 90.8158L147.542 94.8027H146.107L143.571 86.4001H145.161Z" fill="#54534A"/>
<path d="M158.01 90.8845C157.975 91.2723 158.025 91.6631 158.157 92.0296C158.289 92.3961 158.499 92.7296 158.773 93.0069C159.047 93.2843 159.378 93.4989 159.744 93.6358C160.109 93.7727 160.5 93.8286 160.889 93.7997C161.688 93.8262 162.483 93.6769 163.218 93.3624L163.476 94.4599C162.592 94.8264 161.64 95.0045 160.683 94.9829C158.104 94.9829 156.549 93.2681 156.549 90.7473C156.549 88.2266 158.044 86.2117 160.494 86.2117C163.235 86.2117 163.932 88.6295 163.932 90.1729C163.928 90.4109 163.911 90.6485 163.88 90.8845H158.01ZM162.488 89.787C162.488 88.8182 162.084 87.3091 160.365 87.3091C158.826 87.3091 158.147 88.7324 158.027 89.787H162.488Z" fill="#54534A"/>
<path d="M176.789 82.4819V92.5993C176.789 93.3452 176.789 94.2026 176.857 94.7685H175.491L175.413 93.3109C175.143 93.8293 174.73 94.2602 174.224 94.5533C173.717 94.8463 173.137 94.9893 172.551 94.9657C170.523 94.9657 168.959 93.2509 168.959 90.6787C168.959 87.8921 170.678 86.1688 172.723 86.1688C173.223 86.1379 173.721 86.2408 174.167 86.467C174.613 86.6931 174.99 87.0342 175.259 87.4549V87.4549V82.4819H176.789ZM175.259 89.8213C175.261 89.605 175.238 89.3892 175.19 89.1782C175.082 88.6769 174.804 88.2279 174.403 87.9063C174.003 87.5848 173.504 87.4103 172.99 87.412C171.408 87.412 170.472 88.801 170.472 90.653C170.472 92.3678 171.331 93.7653 172.955 93.7653C173.481 93.7624 173.99 93.5794 174.397 93.247C174.804 92.9145 175.084 92.4528 175.19 91.9391C175.241 91.7227 175.264 91.5009 175.259 91.2789V89.8213Z" fill="#54534A"/>
<path d="M186.93 90.5328C186.93 93.6452 184.773 94.9999 182.745 94.9999C180.467 94.9999 178.714 93.2851 178.714 90.7129C178.714 87.9006 180.553 86.2544 182.882 86.2544C185.211 86.2544 186.93 87.9692 186.93 90.5328ZM180.261 90.6186C180.261 92.462 181.318 93.851 182.839 93.851C184.36 93.851 185.418 92.4791 185.418 90.5843C185.418 89.161 184.704 87.3604 182.899 87.3604C181.095 87.3604 180.261 89.0238 180.261 90.6186Z" fill="#54534A"/>
<path d="M188.074 93.9026C188.064 93.7615 188.084 93.62 188.132 93.487C188.18 93.354 188.256 93.2324 188.354 93.13C188.451 93.0276 188.569 92.9466 188.7 92.8922C188.831 92.8377 188.972 92.811 189.114 92.8137C189.255 92.8108 189.395 92.8375 189.525 92.8921C189.655 92.9467 189.772 93.028 189.868 93.1307C189.965 93.2334 190.038 93.3552 190.085 93.4882C190.131 93.6212 190.148 93.7624 190.136 93.9026C190.136 94.1755 190.028 94.4372 189.834 94.6301C189.641 94.8231 189.378 94.9315 189.105 94.9315C188.831 94.9315 188.569 94.8231 188.376 94.6301C188.182 94.4372 188.074 94.1755 188.074 93.9026Z" fill="#54534A"/>
<path d="M6.07631 76.7716H2.08846L2.11425 55.9882L0 55.1994L0.0085945 52.6357L6.11069 52.6443L6.07631 76.7716Z" fill="#4597D3"/>
<path d="M48.3528 76.8318H44.2705V62.2559C44.2705 59.8895 43.8837 58.1747 43.1016 57.1115C42.3195 56.0484 40.953 55.5082 39.0106 55.4996C37.5033 55.4628 36.033 55.9679 34.8681 56.9229C33.909 57.6811 33.2044 58.713 32.8484 59.8809V76.7803H28.7488V62.2045C28.7488 59.8381 28.362 58.1233 27.5714 57.0601C26.7807 55.9969 25.4227 55.4568 23.489 55.4568C21.9808 55.4145 20.5086 55.9203 19.3464 56.88C18.3819 57.6312 17.6735 58.6614 17.3181 59.8295V76.7289H13.3818V52.593H15.3586L16.6306 55.0966C17.4901 54.1298 18.5504 53.3612 19.7378 52.8445C20.9251 52.3277 22.2111 52.0752 23.5062 52.1043C25.1291 52.1071 26.7314 52.4672 28.1987 53.1589C29.5202 53.7423 30.6579 54.6728 31.4904 55.8512C32.366 54.6854 33.5069 53.7439 34.8189 53.1044C36.1309 52.4648 37.5764 52.1456 39.0364 52.1729C45.276 52.1729 48.3901 55.3167 48.3786 61.6043L48.3528 76.8318Z" fill="#4597D3"/>
<path d="M77.5825 64.6136C77.5825 68.3347 76.6915 71.3099 74.9096 73.5391C72.9443 76.037 70.0537 77.2831 66.2378 77.2774C63.7404 77.2325 61.303 76.506 59.1903 75.1768V86.6831H55.2368L55.2884 52.7129H57.7034L58.6832 55.2851C59.4314 54.4395 60.3552 53.7665 61.3905 53.3131C62.8666 52.6008 64.4863 52.2342 66.126 52.2413C69.7988 52.2413 72.6292 53.2959 74.6174 55.4051C76.6056 57.5143 77.594 60.5838 77.5825 64.6136ZM73.4915 64.6136C73.4915 58.5775 71.002 55.5537 66.0229 55.5423C64.4016 55.5466 62.8261 56.0795 61.5366 57.0599C60.5185 57.7222 59.713 58.6628 59.2161 59.7693V70.9155C61.5652 72.9733 63.8857 74.0021 66.1776 74.0021C71.0478 74.0079 73.4858 70.8726 73.4915 64.5965V64.6136Z" fill="#4597D3"/>
<path d="M97.917 53.1075L96.8685 56.4513C95.787 55.968 94.6157 55.7167 93.4307 55.714C91.9826 55.6991 90.5739 56.1837 89.4428 57.0858C88.4974 57.7697 87.7909 58.7323 87.4231 59.8381V76.8918H83.4438V52.7559H85.5151L86.2543 55.3281C87.0183 54.4668 87.9592 53.7797 89.0131 53.3132C90.3688 52.6146 91.8704 52.2445 93.3963 52.2329C94.9442 52.2453 96.4766 52.5417 97.917 53.1075V53.1075Z" fill="#4597D3"/>
<path d="M122.3 64.7765C122.3 68.7206 121.409 71.7758 119.627 73.9421C117.719 76.2686 114.877 77.4318 111.101 77.4318C107.325 77.4318 104.503 76.2428 102.635 73.865C100.917 71.6929 100.057 68.652 100.057 64.7422C100.057 61.0325 100.897 58.1088 102.575 55.971C104.483 53.5074 107.348 52.2785 111.17 52.2842C114.848 52.2842 117.67 53.5046 119.635 55.9453C121.417 58.146 122.305 61.0897 122.3 64.7765ZM118.209 64.7765C118.209 58.6375 115.848 55.5623 111.127 55.5509C106.406 55.5395 104.054 58.609 104.071 64.7594C104.071 67.9146 104.595 70.2325 105.644 71.7129C106.752 73.3591 108.583 74.1822 111.101 74.1822C113.619 74.1822 115.553 73.3248 116.67 71.7215C117.696 70.2067 118.209 67.886 118.209 64.7594V64.7765Z" fill="#4597D3"/>
<path d="M147.997 52.8416L139.635 76.9603H133.971L125.78 52.8159H130.017L136.893 73.8051L143.863 52.8331L147.997 52.8416Z" fill="#4597D3"/>
<path d="M158.328 76.9859L154.34 76.9774L154.366 56.2025L152.251 55.4052L152.26 52.8501H158.362L158.328 76.9859Z" fill="#4597D3"/>
<path d="M186.122 77.0289H182.031V62.4531C182.031 57.9603 180.164 55.7111 176.428 55.7054C174.8 55.6886 173.209 56.1935 171.89 57.1458C170.83 57.8699 170.019 58.903 169.569 60.1038V77.0032H165.625V52.876H168.091L168.951 55.5253C169.762 54.6122 170.766 53.8891 171.89 53.4075C173.304 52.7322 174.851 52.3806 176.419 52.3787C182.894 52.3787 186.125 55.5225 186.114 61.8101L186.122 77.0289Z" fill="#4597D3"/>
<path d="M214.613 52.9359V76.4287C214.613 79.7554 213.633 82.3847 211.674 84.3168C209.714 86.2488 206.964 87.2119 203.423 87.2062C200.532 87.1818 197.735 86.1713 195.499 84.3425L197.673 81.2816C199.262 82.6755 201.276 83.4942 203.389 83.6051C208.213 83.6051 210.628 81.1444 210.634 76.2229V74.2509C208.665 75.9015 206.167 76.7902 203.595 76.7545C202.101 76.7965 200.616 76.5059 199.248 75.9038C197.88 75.3017 196.664 74.4031 195.688 73.2734C193.597 70.8244 192.503 67.6826 192.62 64.4679C192.62 60.7297 193.594 57.7831 195.542 55.6281C197.49 53.4732 200.315 52.4014 204.016 52.4129C206.54 52.3957 209.004 53.176 211.055 54.6421L211.914 52.9273L214.613 52.9359ZM210.565 70.3068V58.9205C209.815 58.2154 208.971 57.618 208.056 57.1457C206.739 56.4122 205.266 56.0036 203.758 55.9539C198.928 55.9539 196.51 58.8119 196.505 64.5279C196.393 66.7143 196.996 68.8776 198.223 70.6927C198.846 71.5411 199.672 72.2208 200.625 72.67C201.578 73.1193 202.628 73.3237 203.681 73.2649C204.967 73.2495 206.238 72.9802 207.419 72.4725C208.601 71.9648 209.67 71.2288 210.565 70.3068V70.3068Z" fill="#4597D3"/>
</g>
<defs>
<clipPath id="clip0_38_24445">
<rect width="297" height="95" fill="white"/>
</clipPath>
</defs>
</svg>
