<svg width="105" height="41" viewBox="0 0 105 41" fill="none" xmlns="http://www.w3.org/2000/svg">
<path d="M0.5 0.5H104.5V40.5H0.5V0.5Z" fill="white" stroke="#8C8C8C"/>
<path d="M22 11H13V20H22V11Z" fill="#F25022"/>
<path d="M22 21H13V30H22V21Z" fill="#00A4EF"/>
<path d="M32 11H23V20H32V11Z" fill="#7FBA00"/>
<path d="M32 21H23V30H32V21Z" fill="#FFB900"/>
<path d="M45.8119 25.0821V23.2881C45.9867 23.4446 46.1802 23.579 46.3879 23.6881C46.6146 23.808 46.8511 23.9084 47.0949 23.9881C47.3393 24.0678 47.5889 24.1302 47.8419 24.1751C48.0689 24.2167 48.2991 24.2385 48.5299 24.2401C49.0995 24.2801 49.6683 24.1533 50.1669 23.8751C50.3412 23.7602 50.4825 23.6018 50.5769 23.4155C50.6713 23.2293 50.7154 23.0216 50.7049 22.8131C50.7107 22.5838 50.6484 22.358 50.5259 22.1641C50.3915 21.968 50.222 21.7985 50.0259 21.6641C49.7858 21.4987 49.5327 21.3532 49.2689 21.2291C48.9776 21.0897 48.6659 20.9444 48.3339 20.7931C47.9779 20.6031 47.6469 20.4101 47.3339 20.2151C47.0426 20.0314 46.774 19.8139 46.5339 19.5671C46.3099 19.3341 46.1291 19.0633 45.9999 18.7671C45.8637 18.4352 45.7977 18.0787 45.8059 17.7201C45.7948 17.2691 45.9101 16.8239 46.1389 16.4351C46.3602 16.0725 46.6607 15.7648 47.0179 15.5351C47.3993 15.2905 47.8192 15.1119 48.2599 15.0071C48.7246 14.8926 49.2014 14.8348 49.6799 14.8351C50.4975 14.7863 51.316 14.9139 52.0799 15.2091V16.9301C51.4016 16.4755 50.5957 16.2495 49.7799 16.2851C49.5205 16.2853 49.2617 16.3101 49.0069 16.3591C48.7661 16.403 48.5336 16.4843 48.3179 16.6001C48.1233 16.7061 47.9546 16.854 47.8239 17.0331C47.6935 17.2194 47.6269 17.4428 47.6339 17.6701C47.6285 17.882 47.6789 18.0917 47.7799 18.2781C47.8891 18.462 48.0352 18.6213 48.2089 18.7461C48.4248 18.9054 48.6551 19.044 48.8969 19.1601C49.1679 19.2941 49.4809 19.4401 49.8389 19.5961C50.2036 19.7861 50.5489 19.9861 50.8749 20.1961C51.1858 20.3962 51.473 20.6311 51.7309 20.8961C51.9733 21.1424 52.1715 21.4286 52.3169 21.7421C52.4666 22.0744 52.5407 22.4357 52.5339 22.8001C52.5488 23.2701 52.4376 23.7355 52.2119 24.1481C51.9988 24.5111 51.701 24.8172 51.3439 25.0401C50.958 25.2802 50.5323 25.4495 50.0869 25.5401C49.594 25.6457 49.091 25.6977 48.5869 25.6951C48.4109 25.6951 48.1949 25.6811 47.9379 25.6551C47.6809 25.6291 47.4199 25.5881 47.1509 25.5381C46.8943 25.4886 46.6403 25.4262 46.3899 25.3511C46.1861 25.2875 45.9918 25.1971 45.8119 25.0821Z" fill="#5E5E5E"/>
<path d="M55.129 16.4261C54.8648 16.4313 54.6088 16.3338 54.415 16.1541C54.3179 16.0682 54.2408 15.9621 54.1889 15.8432C54.1371 15.7244 54.1119 15.5957 54.115 15.4661C54.1119 15.3347 54.137 15.2042 54.1888 15.0834C54.2406 14.9626 54.3177 14.8544 54.415 14.7661C54.6071 14.583 54.8637 14.4832 55.129 14.4881C55.3999 14.4817 55.6626 14.5815 55.861 14.7661C55.9587 14.8541 56.0361 14.9623 56.0878 15.0831C56.1396 15.204 56.1646 15.3346 56.161 15.4661C56.162 15.5939 56.1358 15.7205 56.0841 15.8374C56.0323 15.9543 55.9563 16.0589 55.861 16.1441C55.6635 16.3306 55.4006 16.4319 55.129 16.4261ZM55.971 25.5001H54.271V18.0001H55.971V25.5001Z" fill="#5E5E5E"/>
<path d="M65.0169 24.9001C65.0169 27.6541 63.6326 29.0311 60.8639 29.0311C59.9867 29.0505 59.1155 28.8831 58.3079 28.5401V26.9861C59.0122 27.4199 59.8181 27.6613 60.6449 27.6861C61.0045 27.7406 61.3718 27.7106 61.7177 27.5985C62.0637 27.4864 62.3788 27.2953 62.6381 27.0402C62.8974 26.7852 63.0937 26.4734 63.2115 26.1293C63.3293 25.7853 63.3654 25.4185 63.3169 25.0581V24.2401H63.2879C63.0499 24.6385 62.7211 24.9752 62.3283 25.2225C61.9356 25.4699 61.4899 25.6209 61.0277 25.6634C60.5655 25.7059 60.0998 25.6386 59.6685 25.4671C59.2373 25.2955 58.8526 25.0245 58.5459 24.6761C57.9543 23.9106 57.6569 22.9582 57.7079 21.9921C57.6499 20.9055 57.9677 19.832 58.6079 18.9521C58.9025 18.5822 59.2804 18.2873 59.7107 18.0912C60.141 17.8952 60.6115 17.8037 61.0839 17.8241C61.5275 17.8017 61.9685 17.9037 62.3572 18.1186C62.7459 18.3334 63.0669 18.6526 63.2839 19.0401H63.3129V18.0001H65.0129L65.0169 24.9001ZM63.3329 22.0651V21.0921C63.3427 20.59 63.1545 20.1043 62.8089 19.7401C62.6434 19.5586 62.441 19.4147 62.2151 19.3181C61.9893 19.2215 61.7454 19.1744 61.4999 19.1801C61.2088 19.1673 60.919 19.2256 60.6556 19.35C60.3921 19.4744 60.163 19.6612 59.9879 19.8941C59.5902 20.4822 59.3982 21.1854 59.4419 21.8941C59.4096 22.5263 59.5945 23.1505 59.9659 23.6631C60.1276 23.8759 60.3379 24.047 60.5792 24.1622C60.8204 24.2773 61.0857 24.3332 61.3529 24.3251C61.6232 24.3335 61.892 24.2811 62.1393 24.1717C62.3867 24.0623 62.6063 23.8987 62.7819 23.6931C63.1612 23.2372 63.3576 22.6566 63.3329 22.0641V22.0651Z" fill="#5E5E5E"/>
<path d="M73.908 25.5H72.208V21.273C72.208 19.873 71.7127 19.173 70.722 19.173C70.4783 19.1674 70.2365 19.2169 70.0146 19.3176C69.7926 19.4184 69.5962 19.5679 69.44 19.755C69.0973 20.1659 68.9192 20.6893 68.94 21.224V25.5H67.229V18H68.936V19.245H68.965C69.1981 18.8048 69.5497 18.4384 69.9799 18.1873C70.4102 17.9363 70.902 17.8104 71.4 17.824C71.7518 17.802 72.1038 17.8625 72.4281 18.0005C72.7523 18.1385 73.04 18.3503 73.268 18.619C73.7404 19.289 73.9678 20.1011 73.912 20.919L73.908 25.5Z" fill="#5E5E5E"/>
<path d="M80.962 16.4261C80.6978 16.4313 80.4418 16.3338 80.248 16.1541C80.1509 16.0682 80.0738 15.9621 80.0219 15.8432C79.9701 15.7244 79.9449 15.5957 79.948 15.4661C79.9449 15.3347 79.9701 15.2042 80.0218 15.0834C80.0736 14.9626 80.1507 14.8544 80.248 14.7661C80.4401 14.583 80.6967 14.4832 80.962 14.4881C81.2329 14.4817 81.4956 14.5815 81.694 14.7661C81.7917 14.8541 81.8691 14.9623 81.9209 15.0831C81.9727 15.204 81.9976 15.3346 81.994 15.4661C81.995 15.5939 81.9688 15.7205 81.9171 15.8374C81.8653 15.9543 81.7893 16.0589 81.694 16.1441C81.4965 16.3306 81.2336 16.4319 80.962 16.4261ZM81.8 25.5001H80.1V18.0001H81.8V25.5001Z" fill="#5E5E5E"/>
<path d="M90.6999 25.5H88.9999V21.273C88.9999 19.873 88.5046 19.173 87.5139 19.173C87.2703 19.1674 87.0285 19.2169 86.8065 19.3176C86.5846 19.4184 86.3882 19.5679 86.2319 19.755C85.8867 20.1648 85.7063 20.6885 85.7259 21.224V25.5H84.0229V18H85.7299V19.245H85.7599C85.9928 18.8054 86.3437 18.4395 86.7732 18.1884C87.2026 17.9374 87.6936 17.8112 88.1909 17.824C88.5427 17.802 88.8947 17.8625 89.219 18.0005C89.5433 18.1385 89.8309 18.3503 90.0589 18.619C90.5313 19.289 90.7587 20.1011 90.7029 20.919L90.6999 25.5Z" fill="#5E5E5E"/>
</svg>
